# xmcd
#
# Track frame offsets:
#	150
#	30529
#	95609
#	129387
#	147840
#	193586
#	217072
#
# Disc length: 3248 seconds
#
# Revision: 1
# Processed by: cddbd v1.5.2PL0 Copyright (c) Steve Scherf et al.
# Submitted via: audiograbber 1.83.01
#
DISCID=630cae07
DTITLE=Grateful Dead - 91-06-22 Soldier Field, Chicago IL
DYEAR=1900
DGENRE=
TTITLE0=Drums
TTITLE1=Space
TTITLE2=Dark Star Jam
TTITLE3=Playing In The Band
TTITLE4=Black Peter
TTITLE5=One More Saturday Night
TTITLE6=The Weight
EXTD=
EXTT0=
EXTT1=
EXTT2=
EXTT3=
EXTT4=
EXTT5=
EXTT6=
PLAYORDER=
